<svg width="25" height="25" viewBox="0 0 25 25" fill="none" xmlns="http://www.w3.org/2000/svg">
<path d="M12.5 20.8333C14.7102 20.8333 16.8298 19.9553 18.3926 18.3925C19.9554 16.8297 20.8334 14.7101 20.8334 12.5C20.8334 10.2898 19.9554 8.17023 18.3926 6.60742C16.8298 5.04462 14.7102 4.16665 12.5 4.16665C10.2899 4.16665 8.17029 5.04462 6.60748 6.60742C5.04468 8.17023 4.16671 10.2898 4.16671 12.5C4.16671 14.7101 5.04468 16.8297 6.60748 18.3925C8.17029 19.9553 10.2899 20.8333 12.5 20.8333ZM12.5 2.08331C13.868 2.08331 15.2225 2.35275 16.4863 2.87623C17.7501 3.39972 18.8985 4.16701 19.8657 5.13428C20.833 6.10156 21.6003 7.24989 22.1238 8.51369C22.6473 9.7775 22.9167 11.132 22.9167 12.5C22.9167 15.2627 21.8192 17.9122 19.8657 19.8657C17.9122 21.8192 15.2627 22.9166 12.5 22.9166C6.73962 22.9166 2.08337 18.2291 2.08337 12.5C2.08337 9.73731 3.18084 7.08779 5.13435 5.13428C7.08785 3.18078 9.73737 2.08331 12.5 2.08331ZM13.0209 7.29165V12.7604L17.7084 15.5416L16.9271 16.8229L11.4584 13.5416V7.29165H13.0209Z" fill="white"/>
</svg>
