<svg width="24" height="24" viewBox="0 0 24 24" fill="none" xmlns="http://www.w3.org/2000/svg">
<g clip-path="url(#clip0_45_274)">
<path d="M17.4199 3C17.7446 2.99997 18.0644 3.07898 18.3517 3.23021C18.639 3.38144 18.8851 3.60034 19.0689 3.868L19.1559 4.008L22.4899 9.84C22.6935 10.196 22.7827 10.6059 22.7455 11.0143C22.7083 11.4226 22.5464 11.8097 22.2819 12.123L22.1679 12.246L12.8849 21.529C12.6672 21.7467 12.3767 21.8764 12.0693 21.8931C11.7619 21.9099 11.4591 21.8127 11.2189 21.62L11.1169 21.53L1.8339 12.246C1.54393 11.9562 1.35004 11.5842 1.27849 11.1805C1.20695 10.7768 1.2612 10.3608 1.4339 9.989L1.5119 9.839L4.8449 4.007C5.00599 3.72508 5.2333 3.48661 5.50718 3.31221C5.78107 3.13781 6.0933 3.03271 6.4169 3.006L6.5799 3H17.4199ZM17.4199 5H6.5799L3.2469 10.833L11.9999 19.586L20.7529 10.833L17.4199 5ZM7.2929 9.293C7.4651 9.12082 7.6942 9.01739 7.93722 9.00211C8.18025 8.98683 8.4205 9.06075 8.6129 9.21L8.7069 9.293L11.9999 12.586L15.2929 9.293C15.4729 9.11365 15.7143 9.00953 15.9683 9.00177C16.2222 8.99402 16.4696 9.08321 16.6602 9.25125C16.8507 9.41928 16.9702 9.65355 16.9943 9.90647C17.0184 10.1594 16.9453 10.412 16.7899 10.613L16.7069 10.707L12.8839 14.53C12.6662 14.7477 12.3757 14.8774 12.0683 14.8941C11.7609 14.9109 11.4581 14.8137 11.2179 14.621L11.1159 14.531L7.2929 10.707C7.10543 10.5195 7.00012 10.2652 7.00012 10C7.00012 9.73484 7.10543 9.48053 7.2929 9.293Z" fill="#F05454"/>
</g>
<defs>
<clipPath id="clip0_45_274">
<rect width="24" height="24" fill="white"/>
</clipPath>
</defs>
</svg>
