<svg width="19" height="20" viewBox="0 0 19 20" fill="none" xmlns="http://www.w3.org/2000/svg">
<path d="M8.7085 14.1667H10.2918V9.16666H8.7085V14.1667ZM9.50016 7.49999C9.72447 7.49999 9.91262 7.41999 10.0646 7.25999C10.2166 7.09999 10.2924 6.90221 10.2918 6.66666C10.2918 6.43055 10.2158 6.23249 10.0638 6.07249C9.91183 5.91249 9.72394 5.83277 9.50016 5.83332C9.27586 5.83332 9.0877 5.91332 8.9357 6.07332C8.7837 6.23332 8.70797 6.4311 8.7085 6.66666C8.7085 6.90277 8.7845 7.10082 8.9365 7.26082C9.0885 7.42082 9.27639 7.50055 9.50016 7.49999ZM9.50016 18.3333C8.40502 18.3333 7.37586 18.1144 6.41266 17.6767C5.44947 17.2389 4.61162 16.6453 3.89912 15.8958C3.18662 15.1458 2.62269 14.2639 2.20733 13.25C1.79197 12.2361 1.58402 11.1528 1.5835 9.99999C1.5835 8.84721 1.79144 7.76388 2.20733 6.74999C2.62322 5.7361 3.18715 4.85416 3.89912 4.10416C4.61162 3.35416 5.44947 2.76055 6.41266 2.32332C7.37586 1.8861 8.40502 1.66721 9.50016 1.66666C10.5953 1.66666 11.6245 1.88555 12.5877 2.32332C13.5509 2.7611 14.3887 3.35471 15.1012 4.10416C15.8137 4.85416 16.3779 5.7361 16.7938 6.74999C17.2097 7.76388 17.4174 8.84721 17.4168 9.99999C17.4168 11.1528 17.2089 12.2361 16.793 13.25C16.3771 14.2639 15.8132 15.1458 15.1012 15.8958C14.3887 16.6458 13.5509 17.2397 12.5877 17.6775C11.6245 18.1153 10.5953 18.3339 9.50016 18.3333ZM9.50016 16.6667C11.2682 16.6667 12.7658 16.0208 13.9929 14.7292C15.22 13.4375 15.8335 11.8611 15.8335 9.99999C15.8335 8.13888 15.22 6.56249 13.9929 5.27082C12.7658 3.97916 11.2682 3.33332 9.50016 3.33332C7.73211 3.33332 6.23454 3.97916 5.00745 5.27082C3.78037 6.56249 3.16683 8.13888 3.16683 9.99999C3.16683 11.8611 3.78037 13.4375 5.00745 14.7292C6.23454 16.0208 7.73211 16.6667 9.50016 16.6667Z" fill="white"/>
</svg>
