<svg width="30" height="30" viewBox="0 0 30 30" fill="none" xmlns="http://www.w3.org/2000/svg">
<path d="M18.6562 5H21.625C22.2549 5 22.859 5.26339 23.3044 5.73223C23.7498 6.20107 24 6.83696 24 7.5V23.75C24 24.413 23.7498 25.0489 23.3044 25.5178C22.859 25.9866 22.2549 26.25 21.625 26.25H7.375C6.74511 26.25 6.14102 25.9866 5.69562 25.5178C5.25022 25.0489 5 24.413 5 23.75V7.5C5 6.83696 5.25022 6.20107 5.69562 5.73223C6.14102 5.26339 6.74511 5 7.375 5H10.3438" stroke="currentColor" stroke-width="2" stroke-linecap="round" stroke-linejoin="round"/>
<path d="M10.4874 4.39375C10.6159 3.8529 10.9124 3.37276 11.3298 3.02963C11.7472 2.6865 12.2616 2.50008 12.7912 2.5H16.2076C16.7372 2.50008 17.2516 2.6865 17.669 3.02963C18.0865 3.37276 18.3829 3.8529 18.5114 4.39375L19.25 7.5H9.75L10.4874 4.39375Z" stroke="currentColor" stroke-width="2" stroke-linecap="round" stroke-linejoin="round"/>
<path d="M10.9375 15H18.0625M10.9375 20H18.0625" stroke="currentColor" stroke-width="2" stroke-linecap="round"/>
</svg>
