<svg width="30" height="30" viewBox="0 0 30 30" fill="none" xmlns="http://www.w3.org/2000/svg">
<path d="M17.4545 18.78C15.7696 20.126 13.6333 20.7759 11.4843 20.596C9.33535 20.4162 7.33678 19.4203 5.8991 17.813C4.46141 16.2056 3.69375 14.1088 3.75376 11.9531C3.81377 9.79744 4.6969 7.74656 6.22178 6.22169C7.74666 4.69681 9.79753 3.81368 11.9532 3.75367C14.1089 3.69366 16.2057 4.46132 17.813 5.89901C19.4204 7.33669 20.4163 9.33525 20.5961 11.4842C20.7759 13.6332 20.1261 15.7695 18.7801 17.4544L25.9763 24.6487C26.1524 24.8248 26.2513 25.0635 26.2513 25.3125C26.2513 25.5614 26.1524 25.8002 25.9763 25.9762C25.8003 26.1523 25.5615 26.2512 25.3126 26.2512C25.0636 26.2512 24.8249 26.1523 24.6488 25.9762L17.4563 18.78H17.4545ZM18.7501 12.1875C18.7501 11.3257 18.5803 10.4723 18.2505 9.67613C17.9207 8.87993 17.4374 8.15649 16.828 7.54711C16.2186 6.93772 15.4951 6.45433 14.6989 6.12453C13.9027 5.79474 13.0494 5.62499 12.1876 5.62499C11.3258 5.62499 10.4724 5.79474 9.67623 6.12453C8.88003 6.45433 8.15658 6.93772 7.5472 7.54711C6.93781 8.15649 6.45442 8.87993 6.12463 9.67613C5.79483 10.4723 5.62509 11.3257 5.62509 12.1875C5.62509 13.928 6.31649 15.5972 7.5472 16.8279C8.77791 18.0586 10.4471 18.75 12.1876 18.75C13.9281 18.75 15.5973 18.0586 16.828 16.8279C18.0587 15.5972 18.7501 13.928 18.7501 12.1875Z" fill="currentColor"/>
</svg>
